<?xml version="1.0" encoding="utf-8"?>
<!-- Svg Vector Icons : http://www.sfont.cn -->
<!DOCTYPE svg PUBLIC "-//W3C//DTD SVG 1.1//EN" "http://www.w3.org/Graphics/SVG/1.1/DTD/svg11.dtd">
<svg version="1.1" xmlns="http://www.w3.org/2000/svg" xmlns:xlink="http://www.w3.org/1999/xlink" x="0px" y="0px" viewBox="0 0 1000 1000" enable-background="new 0 0 1000 1000" xml:space="preserve">
<metadata> Svg Vector Icons : http://www.sfont.cn </metadata>
<g><path d="M829,761.2c0,0,1.3,0.2,3.8,0.7c2.5,0.4,6.2,1.1,11.1,2c4.8,1,10.8,2.2,17.8,3.9c7,1.6,15,3.7,23.9,6.4c8.9,2.7,18.7,6,29.2,10.3c5.3,2.2,10.7,4.6,16.2,7.5c5.5,2.9,11.2,6.2,16.8,10.2c5.6,4,11.3,8.6,16.4,14.7c5,6,9.8,13.7,11.6,23.1c0.2,1.2,0.5,2.3,0.5,3.6l0.2,1.8l0.1,0.9c0-0.3,0,1,0,1l0,0.3v2.8c-0.1,1.4-0.3,2.8-0.4,4.2c-0.8,5-2.3,9.6-4.4,14c-2,4.4-4.6,8.3-7.4,11.9c-2.8,3.7-5.9,7-9.1,10.1c-6.4,6.2-13.6,11.5-20.9,16.3c-7.4,4.8-15.1,9.1-23.1,13.2c-15.9,8-32.9,14.7-50.4,20.8c-8.8,3-17.7,5.8-26.8,8.5c-9.1,2.4-18.2,4.9-27.5,7.3c-2.3,0.6-4.5,1.2-6.9,1.8c-2.4,0.5-4.8,1.1-7.2,1.6c-4.8,1-9.6,2.1-14.5,3.2c-4.9,1-9.7,2.1-14.7,3.2c-4.9,0.9-9.8,1.8-14.7,2.6c-39.3,7.4-80.2,12.4-121.9,15.9c-10.4,0.8-20.9,1.6-31.4,2.4c-10.5,0.5-21,1-31.6,1.5c-5.3,0.2-10.6,0.4-15.9,0.7l-15.9,0.3c-10.6,0.2-21.2,0.3-31.8,0.5c-10.6-0.2-21.1-0.3-31.7-0.5l-15.7-0.3c-5.3-0.2-10.6-0.4-15.9-0.7c-10.6-0.5-21.2-1-31.8-1.4c-10.5-0.8-21-1.6-31.4-2.4c-41.7-3.4-82.6-8.4-121.9-15.8c-4.9-0.9-9.8-1.8-14.7-2.7c-4.9-1-9.7-2.1-14.5-3.1c-9.6-2.2-19.2-3.9-28.5-6.5c-9.4-2.5-18.7-5-27.8-7.4c-2.2-0.7-4.4-1.3-6.6-2c-2.3-0.7-4.5-1.4-6.8-2.1c-4.5-1.4-8.9-2.9-13.3-4.4C121.9,934.7,104.9,928,89,920c-8-4-15.7-8.4-23.1-13.2c-7.4-4.8-14.5-10.1-21-16.3c-3.2-3.1-6.3-6.4-9.1-10.1c-2.8-3.6-5.4-7.6-7.4-11.9c-2.1-4.3-3.6-9-4.4-13.9l-0.4-3.7c0-1.2-0.1-2.5-0.1-3.7v-0.5c0-0.1,0-1.3,0-0.9l0.1-0.7l0.1-1.4c0-0.7,0.3-2.3,0.5-3.6c1.9-9.9,6.6-17.3,11.6-23.4c5.1-6.1,10.8-10.7,16.4-14.7c5.6-4,11.3-7.3,16.8-10.2c5.5-2.9,10.9-5.4,16.2-7.5c10.5-4.3,20.3-7.6,29.2-10.3c8.9-2.7,16.9-4.8,23.9-6.4c7-1.6,13-2.9,17.8-3.9c4.8-1,8.6-1.6,11.1-2c2.5-0.4,3.8-0.7,3.8-0.7s-4.9,1.8-14.2,5.2c-9.2,3.4-22.6,8.7-39.2,16.2c-8.2,3.8-17.2,8.2-26.6,13.7c-9.3,5.4-19.1,11.7-27.9,19.6c-4.3,4-8.5,8.3-11.6,13c-1.6,2.3-2.9,4.8-3.9,7.2c-0.5,1.2-0.9,2.4-1.1,3.7c-0.2,0.6-0.2,1.2-0.3,1.8l-0.2,0.9l0,0.7c0,0.5-0.1,0.7-0.1,1.8l0,1.4l0,0.7c0,0.6,0-0.4,0-0.3l0,0.2l0.2,1.8l0.4,1.7c0.6,2.3,1.7,4.7,3.1,7c1.4,2.3,3.2,4.7,5.4,6.9c2.1,2.3,4.5,4.4,7.2,6.5c10.6,8.4,24.5,15.5,39.3,21.5c14.9,6,31,11.3,47.8,15.8c4.2,1.2,8.5,2.2,12.8,3.3c2.1,0.5,4.3,1.1,6.4,1.6c2.2,0.5,4.5,1.1,6.7,1.6c8.8,1.8,17.7,3.6,26.7,5.5c2.3,0.4,4.5,1,6.8,1.4c2.3,0.4,4.6,0.8,6.9,1.1c4.6,0.8,9.3,1.6,13.9,2.4c4.7,0.8,9.3,1.6,14,2.4c4.7,0.6,9.5,1.3,14.3,1.9c9.6,1.2,19.2,2.7,28.9,3.8c9.8,1.1,19.6,2.1,29.5,3.2c9.9,1.1,19.9,1.6,29.9,2.5c5,0.4,10,0.9,15.1,1.3c5,0.4,10.1,0.6,15.2,0.9c10.2,0.6,20.3,1.2,30.6,1.7c10.2,0.3,20.4,0.7,30.6,1l15.4,0.5l15.7,0.2c10.4,0.1,20.7,0.2,31.1,0.3c10.3-0.1,20.7-0.2,31-0.3l15.5-0.2l15.5-0.6c10.3-0.3,20.6-0.7,30.8-1c10.2-0.6,20.4-1.2,30.6-1.7c5.1-0.3,10.2-0.5,15.2-0.9c5-0.4,10.1-0.8,15.1-1.3c10-0.9,20.1-1.4,29.9-2.5c9.9-1.1,19.7-2.1,29.5-3.2c9.8-1,19.4-2.5,28.9-3.7c4.8-0.6,9.5-1.3,14.3-1.9c4.6-0.8,9.3-1.6,13.9-2.4c4.6-0.8,9.2-1.6,13.8-2.3c2.3-0.4,4.6-0.7,6.8-1.1c2.3-0.4,4.6-0.9,6.9-1.4c9.1-1.9,18.2-3.7,27.1-5.6c8.8-2,17.4-4.2,25.8-6.4c16.9-4.5,32.9-9.8,47.8-15.8c14.8-6,28.6-13.1,39.3-21.5c2.7-2.1,5.1-4.3,7.2-6.5c2.1-2.3,4-4.6,5.4-6.9c1.4-2.3,2.5-4.7,3.1-6.9c0.1-0.4,0.2-0.8,0.4-1.3l0.3-2.7l0-0.3c0-0.3,0,0.8,0,0.3l0-0.4l0-0.9c0.1-0.6,0-1.2-0.1-1.8c-0.3-4.8-2.4-9.8-5.6-14.5c-3.1-4.7-7.3-9-11.6-13c-8.8-7.9-18.6-14.2-27.9-19.6c-9.3-5.4-18.3-9.9-26.6-13.7c-16.6-7.5-30-12.8-39.2-16.2C833.9,763,829,761.2,829,761.2z"/><path d="M917.3,442.9c0,0,0.4,5.2,1.3,15.1c0.2,2.5,0.4,5.2,0.6,8.2c0.1,3,0.2,6.4,0.3,10c0.1,3.6,0.2,7.5,0.3,11.6c-0.1,4.1-0.3,8.5-0.4,13.1c-0.1,9.3-1.3,19.5-2.3,30.8c-1.5,11.1-3.2,23.2-5.9,36c-5.3,25.6-13.8,54.2-26.8,84c-0.8,1.9-1.6,3.8-2.4,5.7c-0.9,1.8-1.8,3.7-2.7,5.6c-1.8,3.7-3.7,7.5-5.6,11.3c-1.8,3.8-4,7.5-6.1,11.3c-2.1,3.8-4.1,7.7-6.4,11.5c-2.3,3.8-4.6,7.5-7,11.4c-1.2,1.9-2.4,3.8-3.6,5.7c-1.3,1.9-2.6,3.7-3.9,5.6c-2.6,3.8-5.2,7.5-7.9,11.4c-2.8,3.7-5.6,7.4-8.5,11.2c-5.6,7.6-12,14.7-18.3,22.1c-3.2,3.6-6.6,7.1-10,10.7c-1.7,1.8-3.4,3.6-5.1,5.4c-1.8,1.7-3.5,3.5-5.3,5.2c-3.6,3.5-7.2,6.9-10.8,10.4c-3.8,3.3-7.6,6.6-11.5,9.9c-3.8,3.4-7.9,6.5-11.9,9.7c-4.1,3.1-8,6.5-12.3,9.4c-16.7,12.4-34.9,23.3-53.8,33.4c-19.1,9.9-39.2,18.4-60,25.4c-5.3,1.6-10.5,3.2-15.8,4.9l-4,1.2l-4,1l-8,2c-10.7,2.9-21.7,4.7-32.6,6.8c-11,1.5-22.1,3.2-33.2,3.9c-5.6,0.5-11.1,1-16.7,1.1l-17.5,0.5l-15.7-0.5l-3.9-0.1l-2-0.1l-2.2-0.2l-8.6-0.7l-8.6-0.7l-4.3-0.4l-4.1-0.6c-5.5-0.8-11.1-1.5-16.6-2.3c-22-3.6-43.6-9-64.4-15.8c-20.8-7.1-41-15.5-60-25.4c-18.9-10.1-37.2-21-53.9-33.4c-4.3-2.9-8.2-6.3-12.3-9.4c-4.1-3.2-8.1-6.3-11.9-9.7c-3.9-3.3-7.7-6.6-11.5-9.9c-3.6-3.5-7.2-7-10.8-10.4c-1.8-1.7-3.6-3.5-5.3-5.2c-1.7-1.8-3.4-3.6-5.1-5.4c-3.4-3.6-6.8-7.1-10-10.7c-6.2-7.4-12.7-14.5-18.3-22.1c-2.8-3.8-5.7-7.4-8.5-11.2c-2.6-3.8-5.3-7.6-7.9-11.4c-1.3-1.9-2.6-3.7-3.9-5.6c-1.2-1.9-2.4-3.8-3.6-5.7c-2.4-3.8-4.7-7.6-7-11.4c-2.3-3.8-4.3-7.7-6.4-11.5c-2-3.8-4.3-7.5-6.1-11.3c-1.9-3.8-3.7-7.6-5.6-11.3c-0.9-1.9-1.8-3.7-2.7-5.6c-0.8-1.9-1.6-3.8-2.4-5.7c-13-29.9-21.5-58.4-26.8-84c-2.7-12.8-4.4-24.9-5.9-36c-0.9-11.2-2.2-21.5-2.3-30.8c-0.2-4.6-0.3-9-0.4-13.1c0.1-4.1,0.2-8,0.3-11.6c0.1-3.6,0.2-6.9,0.3-9.9c0.1-3,0.4-5.8,0.6-8.3c0.8-9.8,1.3-15.1,1.3-15.1s0.7,5.2,2,15c0.3,2.4,0.6,5.1,1.1,8.1c0.5,3,1.1,6.2,1.7,9.7c0.6,3.5,1.3,7.2,2,11.2c0.8,4,1.8,8.2,2.7,12.6c1.7,8.9,4.5,18.5,7.1,29c1.6,5.2,3.2,10.6,5,16.2c0.4,1.4,0.8,2.8,1.3,4.2c0.5,1.4,1,2.8,1.5,4.2c1,2.8,2,5.7,3.1,8.7c8.5,23.4,19.9,49,35,75.1c15,26.2,34.2,52.8,57.3,77.9c1.4,1.6,2.9,3.2,4.3,4.7c1.5,1.6,3,3.1,4.5,4.6c3,3.1,6.1,6.2,9.2,9.3c3.2,3,6.4,5.9,9.7,8.9l4.9,4.5l5.1,4.3c13.5,11.7,28.2,22.4,43.5,32.6c3.9,2.4,7.8,4.9,11.8,7.3c3.9,2.4,8.1,4.6,12.1,6.9l6.1,3.5l6.3,3.2c4.2,2.1,8.3,4.3,12.6,6.3c4.3,1.9,8.6,3.8,13,5.7c2.1,1,4.3,1.9,6.6,2.7l6.7,2.6l6.6,2.6c2.2,0.9,4.5,1.5,6.8,2.3c4.5,1.5,9,3.1,13.6,4.5c18.3,5.6,37.3,9.5,56.3,12.7l14.4,1.8l3.6,0.5l3.5,0.3l7,0.5l7,0.5l1.7,0.1l2,0l3.9,0.1l15.7,0.4l13.8-0.3c4.9,0,9.7-0.4,14.5-0.8c9.7-0.5,19.3-1.9,28.9-3.1c19.1-3.2,38-7.1,56.3-12.7c4.6-1.4,9.1-3,13.6-4.5c2.3-0.8,4.5-1.5,6.8-2.3l6.7-2.6l6.7-2.6c2.2-0.8,4.4-1.7,6.6-2.7c4.3-1.9,8.6-3.8,13-5.8c4.3-2,8.4-4.2,12.6-6.3l6.3-3.2l6.1-3.5c4-2.4,8.2-4.5,12.1-6.9c3.9-2.5,7.9-4.9,11.8-7.3c3.9-2.4,7.6-5.2,11.4-7.7c3.8-2.6,7.5-5.2,11.1-8c3.6-2.8,7.2-5.5,10.8-8.2c3.5-2.9,6.9-5.7,10.3-8.6l5.1-4.3l4.9-4.5c3.2-3,6.5-5.9,9.7-8.9c3.1-3.1,6.1-6.2,9.2-9.3c1.5-1.6,3.1-3,4.5-4.6c1.4-1.6,2.9-3.2,4.3-4.7c23.1-25.1,42.3-51.7,57.3-77.9c15.2-26.1,26.5-51.8,35-75.2c1-2.9,2.1-5.8,3.1-8.7c0.5-1.4,1-2.8,1.5-4.2c0.4-1.4,0.9-2.8,1.3-4.2c1.7-5.6,3.4-11,5-16.2c2.6-10.5,5.4-20.2,7.1-29c1-4.4,1.9-8.6,2.7-12.6c0.7-4,1.3-7.7,1.9-11.2c0.6-3.5,1.2-6.7,1.7-9.7c0.5-3,0.7-5.7,1.1-8.2C916.6,448.1,917.3,442.9,917.3,442.9z"/><path d="M813.5,618.2c0,0-0.6,1.6-1.6,4.5c-1.2,2.9-2.5,7.3-4.9,12.7c-1.2,2.7-2.5,5.7-4,8.9c-1.5,3.2-3.3,6.6-5.2,10.3c-1.9,3.6-4.2,7.4-6.4,11.4c-2.3,4-5,8-7.8,12.3c-2.9,4.2-5.9,8.5-9.2,12.9c-3.4,4.3-6.8,8.9-10.6,13.3c-7.5,9-16.1,17.9-25.5,26.7c-4.7,4.3-9.6,8.7-14.8,12.8c-5.1,4.3-10.5,8.2-15.9,12.2c-11,7.8-22.8,14.9-34.9,21.5c-12.2,6.3-24.8,11.9-37.5,16.6c-3.2,1.1-6.4,2.2-9.5,3.3c-3.2,1.1-6.4,1.9-9.6,2.9c-6.3,2-12.7,3.4-19,4.9c-12.6,2.6-24.8,4.6-36.5,5.5c-2.9,0.3-5.8,0.5-8.7,0.6c-2.8,0.1-5.6,0.3-8.4,0.4c-5.5,0-10.8,0.1-15.9-0.1c-5.1-0.3-9.9-0.4-14.6-0.9c-4.6-0.5-9-0.8-13-1.5c-4.1-0.7-7.9-1.2-11.3-1.9c-3.5-0.7-6.7-1.4-9.5-2.1c-2.9-0.6-5.4-1.3-7.6-1.9c-2.2-0.6-4.1-1.2-5.6-1.6c-3-0.9-4.6-1.4-4.6-1.4s1.7-0.1,4.8-0.4c3.1-0.2,7.7-0.4,13.4-0.9c2.9-0.2,6-0.5,9.5-0.7c3.4-0.4,7.2-0.7,11.1-1.1c7.9-0.9,16.7-2,26.3-3.6c4.8-0.8,9.7-1.7,14.8-2.6c5.1-1.2,10.3-2,15.6-3.4c10.7-2.4,21.7-5.6,33.1-9.1c5.6-2,11.4-3.7,17-5.9c5.7-2,11.4-4.4,17.2-6.7c11.4-4.9,22.8-10.1,33.9-16c11.1-5.8,22-12.3,32.5-18.9c5.1-3.5,10.4-6.8,15.3-10.4c5-3.4,9.8-7.2,14.6-10.7c9.3-7.3,18.4-14.5,26.5-21.9c8.3-7.2,15.7-14.5,22.6-21.3c3.4-3.5,6.6-6.8,9.7-10c3-3.3,5.9-6.3,8.6-9.3c2.7-3,5.1-5.8,7.5-8.3c2.3-2.6,4.3-5,6.2-7.2c3.8-4.3,6.7-7.9,8.7-10.3C812.4,619.5,813.5,618.2,813.5,618.2z"/><path d="M623.1,253.2c-4.8-4.2-10.4-7.2-16.4-8.1c-5.9-1-11.9-0.3-17,2.2c-2.6,1.2-4.9,2.7-7,4.6c-1.1,0.9-2,1.9-2.9,3l-0.4,0.4c-0.1,0.1,0.3-0.3,0.1-0.1l-0.1,0.1l-0.2,0.2l-0.7,0.9l-1.4,1.9c-0.8,1.2-1.4,2.3-2.1,3.4c-0.6,1.3-1.2,2.5-1.8,3.8c-1,2.6-1.9,5.2-2.3,8c-2,10.8,0.2,22.2,6.2,30.6c0.8,1,1.4,2.1,2.4,3l1.3,1.4l0.3,0.4l0.2,0.2c-0.1-0.1,0.4,0.4-0.2-0.2l0.1,0.1l0.9,0.8l1.7,1.6c0.6,0.5,1.2,1.2,1.7,1.5c1,0.7,1.9,1.3,2.8,2c4.4,2.8,9.1,4.8,14,5.9c9.8,2.1,20.1,0.2,28.3-5c1-0.7,2.1-1.3,3-2.1l2.8-2.3l2.6-2.6l2.6-3.1l1.5-1.8c0.5-0.6,0.7-1,1-1.5c0.6-1,1.3-1.9,1.9-2.9c1.1-2.3,2.6-4.5,3.5-7c4.3-9.5,5.8-20.2,4.9-30.5c-0.5-5.2-1.6-10.3-3.3-15.1c-0.4-1.2-1-2.4-1.5-3.6c-0.5-1.2-1-2.4-1.6-3.5l-1.8-3.4l-2.1-3.2c-0.7-1.1-1.5-2.1-2.3-3l-2-2.5l-3.3-3.4c-1.1-1.1-2.3-2.5-3.2-3l-2.7-2.2c-0.5-0.4-0.9-0.8-1.4-1.1l-1.6-1.1l-3.3-2.2c-1.1-0.7-2.3-1.2-3.4-1.9c-9.2-4.8-19.4-7.7-29.8-7.5c-10.3,0.1-20.7,2.4-29.9,7.4c-4.5,2.6-9,5.4-13,9l-3,2.6l-0.2,0.2c-0.1,0.1,0.8-0.8,0.3-0.4l-0.1,0.1l-0.4,0.4l-0.8,0.9l-1.6,1.7c-2.1,2.3-4.5,4.8-5.8,6.7c-3.1,3.9-6.2,8.6-8.7,13.5c-2.5,4.9-4.5,10-6,15.3c-3.1,10.7-3.9,22.1-3.2,33.8c0.7,11.7,3.1,23.5,6.5,35.1c3.5,11.7,7.8,23.2,12.8,34.6l0.2,0.5c1.2,3.3,2.4,6.7,3.5,10.1c1.1,3.4,2.1,6.9,3,10.4l1.3,5.3l1.1,5.4l0.8,5.4l0.5,5.5c0.1,1.8,0.1,3.7,0.2,5.5c-0.1,1.8-0.1,3.7-0.2,5.5c-0.2,1.8-0.3,3.6-0.6,5.4c-0.4,1.8-0.6,3.6-1,5.3c-0.5,1.7-0.9,3.5-1.5,5.2c-0.6,1.7-1.2,3.4-1.9,5c-0.8,1.6-1.4,3.3-2.3,4.8l-2.7,4.6l1.6-5c0.5-1.7,0.8-3.4,1.3-5c0.4-1.7,0.6-3.4,0.9-5.1c0.3-1.7,0.3-3.4,0.5-5.1c0.1-1.7,0.1-3.4,0.1-5.1c0-1.7-0.2-3.4-0.3-5c-0.2-1.7-0.4-3.3-0.6-5l-1-4.9l-1.3-4.9l-1.5-4.8l-1.7-4.8l-1.9-4.7c-2.6-6.2-5.6-12.4-8.7-18.5l0.2,0.5c-6.6-11.2-12.7-22.8-17.6-35c-5-12.2-8.9-25.2-10.9-38.7c-2-13.5-1.9-27.8,1.1-41.8c1.6-7,3.8-13.8,6.7-20.4c3-6.5,6.4-12.8,11.1-18.9c2.3-3.4,4.3-5.5,6.3-7.9l1.5-1.8l0.8-0.9l0.4-0.5l0.1-0.1l0.5-0.6l0.2-0.2l4-3.8c5.3-5.1,11.4-9.4,17.8-13.2c12.9-7.4,27.9-11.3,42.9-11.5c15-0.3,30.1,3.6,43.2,10.6c1.6,0.9,3.3,1.7,4.9,2.7l4.6,3.1l2.3,1.6c0.8,0.6,1.5,1.2,2.3,1.9l4.6,3.9c1.7,1.4,2.5,2.4,3.7,3.6l3.3,3.4l0.9,1l0.4,0.6l0.9,1.1l1.8,2.2c1.2,1.5,2.4,3,3.4,4.6l3,4.8l2.6,5.1c0.9,1.7,1.6,3.4,2.3,5.2c0.7,1.8,1.4,3.5,2,5.3c2.3,7.2,3.7,14.6,4.3,22.1c0.7,14.9-2,30-8.8,43.4c-1.5,3.4-3.7,6.5-5.6,9.7l-3.6,4.8c-0.6,0.8-1.3,1.7-1.8,2.3l-1.6,1.7l-1.6,1.7l-0.8,0.9l-0.4,0.4c0.1-0.1-0.9,0.9-0.5,0.6l-0.1,0.1l-0.3,0.2l-4.4,3.9c-1.5,1.2-3.2,2.3-4.7,3.4c-1.6,1.1-3.4,2-5,3c-6.9,3.6-14.5,6-22.3,6.7c-7.7,0.8-15.6-0.1-22.9-2.3c-7.3-2.2-14.2-5.9-20-10.6c-1.5-1.3-3-2.7-4.5-4c-1.4-1.3-2.2-2.4-3.3-3.6c-2.8-3.1-4.7-6.1-6.6-9.4c-7.3-13.3-8.3-29.1-3.8-42.7c1.1-3.4,2.6-6.7,4.4-9.8c0.9-1.5,2-3,2.9-4.5c1.2-1.4,2.4-3,3.5-4.3l1.7-1.7l0.9-0.8l0.6-0.6l0.5-0.4c1.4-1.2,2.8-2.3,4.3-3.2c3-2,6.3-3.4,9.7-4.3c3.4-1,6.9-1.3,10.4-1.2c3.5,0.1,6.8,0.8,10,2C614.1,243.7,619.4,248,623.1,253.2z"/><path d="M393.4,85.8c0,0,0.7-0.4,2.1-1.2c1.4-0.7,3.5-1.8,6.4-2.7c2.9-0.9,6.7-1.7,11.3-1.7c4.6,0,9.9,0.9,15.4,3.3c5.5,2.4,11.2,6.3,16,12c2.4,2.9,4.5,6,6.3,9.8c0.4,0.8,0.8,1.7,1.2,2.5c0.4,1,0.8,2,1.2,2.9c0.7,1.9,1.3,3.9,1.9,6c2.1,8.3,2.7,17.7,0.9,27.3c-1.8,9.6-6,19.5-13.2,28.1c-3.5,4.3-7.9,8.2-12.8,11.4c-1.2,0.8-2.5,1.6-3.8,2.3c-1.2,0.6-2.5,1.3-3.7,1.9c-2.9,1.3-5.6,2.5-8.5,3.3c-11.4,3.8-24.5,4.3-37.1,1.1c-12.6-3.1-24.6-10.1-34.1-19.9c-4.7-4.9-8.9-10.5-12.2-16.6c-0.8-1.5-1.6-3.1-2.4-4.6l-0.6-1.2l-0.6-1.3l-0.9-2.1c-0.3-0.6-0.6-1.5-0.9-2.3l-0.9-2.5c-0.6-1.7-1.1-3.3-1.6-4.9c-7.9-26.3-4.5-57,11.2-81.9c7.8-12.4,18.6-23.4,31.7-31c1.6-1,3.3-1.8,5-2.7l0.3-0.2l0.6-0.3l0.5-0.3l1.1-0.5l2.2-1c1.5-0.7,3.5-1.5,5.3-2.2c1.8-0.7,3.5-1.2,5.3-1.9c7-2.3,14.3-3.8,21.7-4.6c14.8-1.5,29.8,0.3,43.7,5c14,4.6,26.7,12.2,37.5,21.8c10.8,9.5,19.5,21,25.8,33.4c1.6,3.1,3,6.2,4.4,9.4l1.8,4.7l0.8,2.2l0.8,2.7c0.5,1.8,1.1,3.6,1.5,5.3l1.1,5.1c0.4,1.7,0.5,3.4,0.8,5.1c0.3,1.7,0.5,3.4,0.6,5.1c0.6,6.9,0.4,13.7-0.4,20.3c-0.7,6.6-2.2,13-4,19.1c-1.8,6.1-4.1,11.9-6.6,17.4c-2.5,5.6-5.3,10.8-8.2,15.8c-11.6,20-25.1,36.4-36.3,51.6c-2.8,3.8-5.4,7.5-7.8,11.2c-0.6,0.9-1.2,1.8-1.7,2.7c-0.6,1-1.2,2-1.8,3c-1,1.8-1.9,3.4-2.8,5.3c-3.4,7.3-5.5,14.9-6.6,22.2c-2.1,14.7-0.7,28.2,1.7,38.9c2.4,10.8,5.6,19,8.1,24.4c2.5,5.4,4.1,8.2,4.1,8.2s-0.5-0.6-1.4-1.9c-0.9-1.2-2.3-3.1-4-5.6c-3.2-5.1-7.8-12.9-11.7-23.7c-3.8-10.8-7.3-24.6-6.6-41.2c0.3-8.2,1.8-17.1,4.9-26c0.8-2.2,1.8-4.6,2.8-6.8c1-2.1,1.9-4.1,2.9-6.3c2.1-4.4,4.5-8.6,7-12.9c4.9-8.5,10.3-17,15.6-25.7c5.2-8.8,10.5-17.8,15-27.3c2.3-4.7,4.3-9.6,6.2-14.5c1.9-4.9,3.4-9.9,4.6-15c1.2-5.1,2-10.2,2.3-15.3c0.3-5.1,0.2-10.3-0.5-15.4c-0.1-1.3-0.3-2.6-0.6-3.8c-0.3-1.3-0.4-2.5-0.8-3.8l-1-3.8c-0.3-1.3-0.8-2.3-1.1-3.5c-0.5-1.8-2.2-5.8-3-7.6c-1.2-2.4-2.3-4.9-3.7-7.3c-5.3-9.4-12.2-18.1-20.4-25.1c-8.3-7.1-17.9-12.5-28.2-15.9c-10.3-3.4-21.3-4.6-32-3.5c-5.4,0.5-10.7,1.6-15.9,3.3c-1.3,0.4-2.7,0.8-3.8,1.3c-1.2,0.5-2.2,0.8-3.6,1.4l-3.9,1.8c-1.1,0.6-2.3,1.2-3.4,1.9c-4.5,2.6-8.7,5.7-12.6,9.3c-3.8,3.6-7.2,7.7-10.1,12.1c-5.8,8.9-9.7,19-11.4,29.4c-1.7,10.4-1.2,21.1,1.2,31.1c0.3,1.2,0.6,2.6,1,3.7l0.5,1.7c0.2,0.5,0.3,1.1,0.6,1.9l0.8,2.1l0.2,0.5l0.1,0.3c0,0,0.2,0.5,0,0l0.4,0.8c0.5,1.1,1,2.3,1.5,3.3c2.1,4.4,4.8,8.4,7.9,12c6.2,7.2,14.2,12.4,22.8,15.3c8.6,2.8,17.8,3.1,26.2,1.1c2.1-0.5,4.2-1.2,6-1.8c1.1-0.4,2.1-0.9,3.2-1.3c0.9-0.4,1.9-0.9,2.8-1.4c3.6-1.9,6.9-4.4,9.8-7.3c5.8-5.7,9.8-12.9,12-20.3c2.3-7.4,2.7-15,1.7-22c-0.2-1.8-0.6-3.5-1-5.2c-0.2-0.8-0.4-1.6-0.6-2.4c-0.3-0.9-0.6-1.7-0.9-2.6c-1-2.9-2.5-5.9-4.1-8.5c-3.3-5.2-7.6-9.2-12-11.9c-9-5.4-18.1-5.9-23.9-5c-2.9,0.4-5.1,1-6.6,1.5C394.1,85.5,393.4,85.8,393.4,85.8z"/><path d="M525.1,93.5"/><path d="M678.2,331.6c0,0,5.6,0.2,16.2,0.6c5.3,0.2,11.8,0.5,19.4,0.8c3.8,0.2,7.9,0.4,12.3,0.5c4.4,0.4,9,0.8,13.9,1.2c9.8,0.9,20.8,1.7,32.6,2.9c11.8,1.3,24.7,3.1,38.3,5.4c13.7,2.4,28.2,5.2,43.4,9.4c7.6,2.1,15.4,4.6,23.4,7.8c4,1.6,8,3.4,12.1,5.5c4.1,2.1,8.2,4.5,12.3,7.7c4.1,3.2,8.4,7.2,11.6,13.4c1.5,3.2,2.8,6.9,2.9,11c0,0.6,0.1-0.3,0,1.6l0,0.4l0,0.8c0,0.3,0,0.4-0.1,1l-0.3,1.8c-0.2,1.2-0.5,2.5-0.8,3.3c-0.3,0.9-0.6,1.9-0.9,2.7c-2.9,6.9-7.3,11.4-11.4,15.2c-4.2,3.7-8.6,6.6-13,9.3c-8.8,5.2-17.9,9.1-27.1,12.7c-9.2,3.5-18.6,6.6-28.2,9.4c-38.3,10.9-79,18.2-121.3,23.8c-21.1,2.8-42.7,5.1-64.5,6.9c-21.8,1.9-43.9,3.4-66.2,4.3c-44.6,2.1-89.8,2.5-135.2,1.6c-45.3-1.2-90.6-3.7-135.1-8.3c-22.3-2.3-44.3-5.1-66.1-8.6c-21.8-3.5-43.2-7.5-64.3-12.6c-10.5-2.6-20.9-5.4-31.3-8.7c-10.3-3.2-20.5-7-30.6-11.6c-5-2.3-10.1-4.9-15.1-8c-5-3.1-10.1-6.8-15-11.9c-2.4-2.7-4.9-5.7-6.9-9.6c-2-3.8-3.5-8.8-3.5-14c0,0.5,0-1.8,0-1.7l0-0.5l0.1-0.9l0.1-0.9l0.2-1.2c0.1-0.8,0.3-1.6,0.4-2.3c0.3-1.2,0.7-2.3,1.1-3.5c0.4-1,0.9-2.1,1.4-3.1c2-3.9,4.4-6.9,6.8-9.4c4.9-5,9.8-8.2,14.6-11.1c4.8-2.8,9.6-5,14.3-7c9.4-4,18.7-7,27.8-9.5c18.2-5,35.8-8.5,52.7-11.3c33.8-5.5,64.8-8.1,92.3-9.9c27.5-1.9,51.4-2.3,71.1-2.5c19.7-0.3,35.2,0.1,45.7,0.3c5.3,0.2,9.3,0.3,12,0.4c2.7,0.1,4.1,0.1,4.1,0.1s-5.6,0.6-16.1,1.8c-10.5,1.1-25.8,3-45.3,5.3c-19.5,2.4-43.1,5.7-70,9.8c-13.5,2.1-27.7,4.5-42.7,7.4c-14.9,2.9-30.6,6-46.7,9.9c-16.1,3.9-32.8,8.3-49.2,14.1c-8.2,2.9-16.4,6.1-24,9.9c-3.8,1.9-7.5,3.9-10.8,6.1c-3.2,2.1-6.2,4.5-7.9,6.6c-0.9,1-1.4,1.9-1.5,2.4c0,0.1,0,0.2-0.1,0.3c0,0,0,0.1,0,0c0.1-0.2,0.1-0.3,0.1-0.5l0-0.3c0-0.1,0-0.2,0,0l0,0.9l0,0.5c0,0.4,0.1-1.6,0-0.8c0.1-0.2,0-0.4,0.3,0.1c0.3,0.4,1,1.3,1.9,2.2c2.1,1.9,5.2,4.1,8.8,6.1c3.6,2,7.6,3.9,11.9,5.6c17.1,6.8,36.6,11.8,56.5,16c20,4.1,40.7,7.5,61.8,10.3c21.1,2.8,42.6,5,64.4,7c43.5,3.7,87.9,6.1,132.4,7c44.4,1.1,89,0.9,132.8-0.3c21.9-0.7,43.6-1.6,65-2.9c21.4-1.3,42.5-2.9,63.2-4.8c41.3-4,81.2-9.3,117.7-17.7c18.1-4.2,35.7-9.3,50-16.4c3.5-1.8,6.8-3.7,9.4-5.7c1.4-1,2.4-2,3.3-2.9c0.8-0.9,1.5-1.8,1.8-2.3c0.1-0.2,0.3-0.8,0.2-0.3c0,0.1,0,0.1,0.1,0.2c0,0,0.1-0.5,0.1-0.7l0.1-0.8l0-0.4c-0.1,1.6,0,0.4,0,0.8c0.1-0.3,0-0.7-0.2-1.4c-0.6-1.5-2.2-3.8-4.7-6c-4.9-4.4-11.6-8.3-18.3-11.6c-6.8-3.3-13.8-6.2-20.8-8.8c-14-5.2-27.7-9.3-40.8-12.8c-13.1-3.5-25.5-6.3-37-8.9c-11.5-2.5-22.1-4.5-31.7-6.4c-4.8-1-9.4-1.9-13.6-2.7c-4.3-0.7-8.4-1.4-12.1-2.1c-7.5-1.3-13.9-2.4-19.1-3.3C683.8,332.5,678.2,331.6,678.2,331.6z"/></g>
</svg>